<?xml version="1.0" encoding="utf-8"?>
<!-- Generator: Adobe Illustrator 21.0.0, SVG Export Plug-In . SVG Version: 6.00 Build 0)  -->
<svg version="1.1" id="Layer_1" xmlns="http://www.w3.org/2000/svg" xmlns:xlink="http://www.w3.org/1999/xlink" x="0px" y="0px"
	 viewBox="0 0 252 144" style="enable-background:new 0 0 252 144;" xml:space="preserve">
<style type="text/css">
	.st0{display:none;}
	.st1{display:inline;}
	.st2{fill:#4FBF52;stroke:#000000;stroke-width:15;stroke-miterlimit:10;}
	.st3{opacity:0.22;}
	.st4{display:none;fill:#FFFFFF;}
</style>
<g id="Layer_1_1_" class="st0">
	<polygon class="st1" points="83.9,64 60.6,62.2 68.4,102.9 90.8,101.1 	"/>
	<polygon class="st1" points="123,102 96.1,103.1 104,143.8 126.3,142.2 	"/>
	<polygon class="st1" points="208.4,4 188.9,0.7 168.6,27.5 187.2,31.8 	"/>
	<path class="st1" d="M83.9,64c-4.5,11.2-33.5,31.3-33.5,31.3s49.2,13.4,76,47c0,0,29.1-98.4,100.6-102.9c0,0-26.8-20.1-17.9-35.8
		c0,0-73.8,42.5-87.2,96.1L83.9,64z"/>
</g>
<g id="Layer_2">
	<path class="st2" d="M66.6,66.6C62.8,76.1,38,93.3,38,93.3s42,11.4,64.9,40.1c0,0,24.8-84,85.9-87.8c0,0-22.9-17.2-15.3-30.6
		c0,0-63,36.3-74.4,82L66.6,66.6z"/>
	<g class="st3">
		<path class="st4" d="M175.9,40.1c0,0-41.3,15.9-51.9,30.7c-13.3,18.7-19,38.1-26.5,60.3c0,0,4.6-20.5,26.5-51.9
			C143.1,51.7,175.9,40.1,175.9,40.1z"/>
	</g>
</g>
</svg>
