<?xml version="1.0" encoding="utf-8"?>
<!-- Generator: Adobe Illustrator 21.0.0, SVG Export Plug-In . SVG Version: 6.00 Build 0)  -->
<svg version="1.1" id="Layer_1" xmlns="http://www.w3.org/2000/svg" xmlns:xlink="http://www.w3.org/1999/xlink" x="0px" y="0px"
	 viewBox="0 0 90.3 64.4" style="enable-background:new 0 0 90.3 64.4;" xml:space="preserve">
<style type="text/css">
	.st0{fill:#245927;stroke:#000000;stroke-miterlimit:10;}
	.st1{opacity:0.22;}
	.st2{fill:#FFFFFF;}
</style>
<polygon points="26.3,28.6 15.9,27.8 19.4,46 29.4,45.2 "/>
<polygon points="43.8,45.6 31.8,46.1 35.3,64.3 45.3,63.6 "/>
<polygon points="82,1.8 73.3,0.3 64.2,12.3 72.5,14.2 "/>
<path d="M26.3,28.6c-2,5-15,14-15,14s22,6,34,21c0,0,13-44,45-46c0,0-12-9-8-16c0,0-33,19-39,43L26.3,28.6z"/>
<path class="st0" d="M16.2,28.4c-2,5-15,14-15,14s22,6,34,21c0,0,13-44,45-46c0,0-12-9-8-16c0,0-33,19-39,43L16.2,28.4z"/>
<g class="st1">
	<path class="st2" d="M71.2,15.4c0,0-19.5,7.5-24.5,14.5c-6.3,8.8-9,18-12.5,28.5c0,0,2.2-9.7,12.5-24.5
		C55.7,20.9,71.2,15.4,71.2,15.4z"/>
</g>
</svg>
