<?xml version="1.0" encoding="utf-8"?>
<!-- Generator: Adobe Illustrator 21.0.0, SVG Export Plug-In . SVG Version: 6.00 Build 0)  -->
<svg version="1.1" id="Layer_1" xmlns="http://www.w3.org/2000/svg" xmlns:xlink="http://www.w3.org/1999/xlink" x="0px" y="0px"
	 viewBox="0 0 144 144" style="enable-background:new 0 0 144 144;" xml:space="preserve">
<style type="text/css">
	.st0{fill:none;stroke:#000000;stroke-width:3;stroke-miterlimit:10;}
	.st1{fill:#FFFFFF;stroke:#000000;stroke-width:5;stroke-miterlimit:10;}
	.st2{fill:none;stroke:#000000;stroke-width:5;stroke-miterlimit:10;}
</style>
<path class="st0" d="M86,32.7c-10.3,0-19.7,4-26.8,10.5l28.3,28.3l-28.8,28.8c7.1,6.8,16.7,11,27.3,11c21.7,0,39.3-17.6,39.3-39.3
	S107.7,32.7,86,32.7z"/>
<line class="st1" x1="46.5" y1="72" x2="130" y2="72"/>
<path class="st0" d="M73.3,14.8c-15,0-28.7,5.8-38.9,15.3l41.1,41.1l-41.9,41.9c10.3,9.9,24.3,16,39.7,16
	c31.6,0,57.2-25.6,57.2-57.2S104.8,14.8,73.3,14.8z"/>
<polyline class="st2" points="35.5,29.5 129.5,71.5 34.5,114.5 "/>
<path class="st0" d="M59.1,43.3c-7.7,7.2-12.6,17.5-12.6,28.9c0,11.2,4.6,21.2,12.1,28.4"/>
</svg>
